<svg width="32" height="32" viewBox="0 0 32 32" fill="none" xmlns="http://www.w3.org/2000/svg">
  <defs>
    <linearGradient id="grad1" x1="0%" y1="0%" x2="100%" y2="100%">
      <stop offset="0%" style="stop-color:#10B981;stop-opacity:1" />
      <stop offset="100%" style="stop-color:#3B82F6;stop-opacity:1" />
    </linearGradient>
  </defs>
  
  <!-- Círculo de fundo -->
  <circle cx="16" cy="16" r="16" fill="url(#grad1)"/>
  
  <!-- Gota d'água principal -->
  <path d="M16 6C16 6 12 10 12 14C12 16.2091 13.7909 18 16 18C18.2091 18 20 16.2091 20 14C20 10 16 6 16 6Z" fill="white" opacity="0.9"/>
  
  <!-- Folha pequena -->
  <path d="M22 8C22 8 20 9 20 10.5C20 11.3284 20.6716 12 21.5 12C22.3284 12 23 11.3284 23 10.5C23 9 22 8 22 8Z" fill="white" opacity="0.7"/>
  
  <!-- Sementes/pontos -->
  <circle cx="10" cy="22" r="1.5" fill="white" opacity="0.8"/>
  <circle cx="14" cy="24" r="1" fill="white" opacity="0.6"/>
  <circle cx="18" cy="23" r="1" fill="white" opacity="0.6"/>
  <circle cx="22" cy="21" r="1.5" fill="white" opacity="0.8"/>
</svg>